<svg xmlns="http://www.w3.org/2000/svg" viewBox="0 0 512 512">
  <rect width="512" height="512" rx="112" fill="#ff8fab"/>
  <circle cx="420" cy="96" r="34" fill="#ffd166"/>
  <g transform="translate(36 40) scale(2.2)">
    <g class="bong-ear bong-ear-left">
      <ellipse cx="72" cy="52" rx="20" ry="48" fill="#fff8ee" stroke="#f3e3cf" stroke-width="3" transform="rotate(-12 72 52)"/>
      <ellipse cx="72" cy="56" rx="10" ry="34" fill="#ffb3c7" transform="rotate(-12 72 56)"/>
    </g>
    <g class="bong-ear bong-ear-right">
      <ellipse cx="128" cy="52" rx="20" ry="48" fill="#fff8ee" stroke="#f3e3cf" stroke-width="3" transform="rotate(12 128 52)"/>
      <ellipse cx="128" cy="56" rx="10" ry="34" fill="#ffb3c7" transform="rotate(12 128 56)"/>
    </g>
    <ellipse cx="100" cy="120" rx="66" ry="58" fill="#fff8ee" stroke="#f3e3cf" stroke-width="3"/>
    <ellipse cx="100" cy="150" rx="40" ry="22" fill="#ffffff" opacity="0.7"/>
    
    <ellipse cx="80" cy="110" rx="11" ry="13" fill="#4a3360"/>
    <ellipse cx="120" cy="110" rx="11" ry="13" fill="#4a3360"/>
    <circle cx="84" cy="104" r="4.5" fill="#fff"/>
    <circle cx="124" cy="104" r="4.5" fill="#fff"/>
    <circle cx="77" cy="115" r="2" fill="#fff" opacity="0.8"/>
    <circle cx="117" cy="115" r="2" fill="#fff" opacity="0.8"/>
    <ellipse cx="62" cy="134" rx="12" ry="7" fill="#ff9ab5" opacity="0.75"/>
    <ellipse cx="138" cy="134" rx="12" ry="7" fill="#ff9ab5" opacity="0.75"/>
    <path d="M94 124 q6 6 12 0 q-6 -4 -12 0 z" fill="#ff7a9c"/>
    
    <path d="M86 132 q14 20 28 0 z" fill="#4a3360"/>
    <path d="M92 139 q8 8 16 0 q-8 -5 -16 0 z" fill="#ff7a9c"/>
  </g>
</svg>
